<mxfile host="app.diagrams.net" modified="2024-01-10T22:35:40.963Z" agent="Mozilla/5.0 (X11; Linux x86_64) AppleWebKit/537.36 (KHTML, like Gecko) Chrome/120.0.0.0 Safari/537.36" etag="bSw6i6cb84iD5cTzrVde" version="22.1.18" type="github">
  <diagram name="Page-1" id="7a6c530e-6e37-e111-ec74-82921da8cc10">
    <mxGraphModel dx="2130" dy="1322" grid="1" gridSize="10" guides="1" tooltips="1" connect="1" arrows="1" fold="1" page="1" pageScale="1.5" pageWidth="1169" pageHeight="826" background="#000033" math="0" shadow="0">
      <root>
        <mxCell id="0" style=";html=1;" />
        <mxCell id="1" style=";html=1;" parent="0" />
        <mxCell id="23046e2b9bb16c14-27" value="&lt;h4&gt;&lt;br&gt;&lt;/h4&gt;" style="rounded=1;whiteSpace=wrap;html=1;shadow=0;strokeWidth=2;fillColor=#004C99;fontSize=12;fontColor=#000000;align=center;strokeColor=none;arcSize=3;" parent="1" vertex="1">
          <mxGeometry x="272" y="140" width="168" height="440" as="geometry" />
        </mxCell>
        <mxCell id="23046e2b9bb16c14-49" value="" style="rounded=1;whiteSpace=wrap;html=1;shadow=0;strokeWidth=2;fillColor=none;fontSize=12;fontColor=#000000;align=center;strokeColor=#FFFFFF;" parent="1" vertex="1">
          <mxGeometry x="296" y="190" width="120" height="370" as="geometry" />
        </mxCell>
        <mxCell id="24964f25f45c63f1-1" value="" style="verticalLabelPosition=bottom;html=1;verticalAlign=top;strokeColor=none;fillColor=#FFFFFF;shape=mxgraph.azure.computer;rounded=0;shadow=0;fontSize=12;fontColor=#000000;align=center;" parent="1" vertex="1">
          <mxGeometry x="331" y="216" width="50" height="45" as="geometry" />
        </mxCell>
        <mxCell id="24964f25f45c63f1-2" value="" style="verticalLabelPosition=bottom;html=1;verticalAlign=top;strokeColor=none;fillColor=#FFFFFF;shape=mxgraph.azure.computer;rounded=0;shadow=0;fontSize=12;fontColor=#000000;align=center;" parent="1" vertex="1">
          <mxGeometry x="331" y="286" width="50" height="45" as="geometry" />
        </mxCell>
        <mxCell id="24964f25f45c63f1-3" value="" style="verticalLabelPosition=bottom;html=1;verticalAlign=top;strokeColor=none;fillColor=#FFFFFF;shape=mxgraph.azure.computer;rounded=0;shadow=0;fontSize=12;fontColor=#000000;align=center;" parent="1" vertex="1">
          <mxGeometry x="331" y="436" width="50" height="45" as="geometry" />
        </mxCell>
        <mxCell id="23046e2b9bb16c14-113" value="Architectural Proposal" style="text;strokeColor=none;fillColor=none;html=1;fontSize=24;fontStyle=1;verticalAlign=middle;align=center;rounded=0;shadow=0;fontColor=#FFFFFF;strokeWidth=6;dashed=1;" parent="1" vertex="1">
          <mxGeometry x="120" y="40" width="1510" height="40" as="geometry" />
        </mxCell>
        <mxCell id="YAfutnhfghZewP8T_fIi-3" value="BFF Next" style="text;strokeColor=none;fillColor=none;html=1;fontSize=24;fontStyle=1;verticalAlign=middle;align=center;rounded=0;shadow=0;fontColor=#000000;" vertex="1" parent="1">
          <mxGeometry x="286" y="150" width="140" height="40" as="geometry" />
        </mxCell>
        <mxCell id="YAfutnhfghZewP8T_fIi-4" value="" style="verticalLabelPosition=bottom;html=1;verticalAlign=top;strokeColor=none;fillColor=#FFFFFF;shape=mxgraph.azure.computer;rounded=0;shadow=0;fontSize=12;fontColor=#000000;align=center;" vertex="1" parent="1">
          <mxGeometry x="331" y="364" width="50" height="45" as="geometry" />
        </mxCell>
        <mxCell id="YAfutnhfghZewP8T_fIi-5" value="" style="verticalLabelPosition=bottom;html=1;verticalAlign=top;strokeColor=none;fillColor=#FFFFFF;shape=mxgraph.azure.computer;rounded=0;shadow=0;fontSize=12;fontColor=#000000;align=center;" vertex="1" parent="1">
          <mxGeometry x="331" y="501" width="50" height="45" as="geometry" />
        </mxCell>
        <mxCell id="YAfutnhfghZewP8T_fIi-58" style="edgeStyle=orthogonalEdgeStyle;rounded=0;orthogonalLoop=1;jettySize=auto;html=1;strokeWidth=6;dashed=1;strokeColor=#FFFFFF;" edge="1" parent="1" source="YAfutnhfghZewP8T_fIi-11" target="YAfutnhfghZewP8T_fIi-55">
          <mxGeometry relative="1" as="geometry" />
        </mxCell>
        <mxCell id="YAfutnhfghZewP8T_fIi-59" style="edgeStyle=orthogonalEdgeStyle;rounded=0;orthogonalLoop=1;jettySize=auto;html=1;entryX=0;entryY=0.5;entryDx=0;entryDy=0;strokeWidth=6;dashed=1;strokeColor=#FFFFFF;" edge="1" parent="1" source="YAfutnhfghZewP8T_fIi-11" target="YAfutnhfghZewP8T_fIi-52">
          <mxGeometry relative="1" as="geometry" />
        </mxCell>
        <mxCell id="YAfutnhfghZewP8T_fIi-60" style="edgeStyle=orthogonalEdgeStyle;rounded=0;orthogonalLoop=1;jettySize=auto;html=1;strokeWidth=6;dashed=1;strokeColor=#FFFFFF;" edge="1" parent="1" source="YAfutnhfghZewP8T_fIi-11" target="YAfutnhfghZewP8T_fIi-49">
          <mxGeometry relative="1" as="geometry" />
        </mxCell>
        <mxCell id="YAfutnhfghZewP8T_fIi-61" style="edgeStyle=orthogonalEdgeStyle;rounded=0;orthogonalLoop=1;jettySize=auto;html=1;entryX=0;entryY=0.5;entryDx=0;entryDy=0;strokeWidth=6;dashed=1;strokeColor=#FFFFFF;" edge="1" parent="1" source="YAfutnhfghZewP8T_fIi-11" target="YAfutnhfghZewP8T_fIi-34">
          <mxGeometry relative="1" as="geometry" />
        </mxCell>
        <mxCell id="YAfutnhfghZewP8T_fIi-62" style="edgeStyle=orthogonalEdgeStyle;rounded=0;orthogonalLoop=1;jettySize=auto;html=1;entryX=0;entryY=0.5;entryDx=0;entryDy=0;strokeWidth=6;dashed=1;strokeColor=#FFFFFF;" edge="1" parent="1" source="YAfutnhfghZewP8T_fIi-11" target="YAfutnhfghZewP8T_fIi-39">
          <mxGeometry relative="1" as="geometry" />
        </mxCell>
        <mxCell id="YAfutnhfghZewP8T_fIi-11" value="&lt;h3&gt;API&lt;br&gt;Managment&lt;/h3&gt;" style="rounded=1;whiteSpace=wrap;html=1;shadow=0;strokeWidth=2;fillColor=#7EA6E0;fontSize=12;align=center;strokeColor=#6c8ebf;arcSize=3;verticalAlign=top;" vertex="1" parent="1">
          <mxGeometry x="510" y="140" width="123" height="1140" as="geometry" />
        </mxCell>
        <mxCell id="YAfutnhfghZewP8T_fIi-12" value="" style="shape=image;verticalLabelPosition=bottom;labelBackgroundColor=#ffffff;verticalAlign=top;aspect=fixed;imageAspect=0;image=data:image/svg+xml,PHN2ZyB4bWxuczpjYz0iaHR0cDovL2NyZWF0aXZlY29tbW9ucy5vcmcvbnMjIiB4bWxuczpkYz0iaHR0cDovL3B1cmwub3JnL2RjL2VsZW1lbnRzLzEuMS8iIHhtbG5zOmlua3NjYXBlPSJodHRwOi8vd3d3Lmlua3NjYXBlLm9yZy9uYW1lc3BhY2VzL2lua3NjYXBlIiB4bWxuczpyZGY9Imh0dHA6Ly93d3cudzMub3JnLzE5OTkvMDIvMjItcmRmLXN5bnRheC1ucyMiIHhtbG5zOnNvZGlwb2RpPSJodHRwOi8vc29kaXBvZGkuc291cmNlZm9yZ2UubmV0L0RURC9zb2RpcG9kaS0wLmR0ZCIgeG1sbnM6c3ZnPSJodHRwOi8vd3d3LnczLm9yZy8yMDAwL3N2ZyIgeG1sbnM9Imh0dHA6Ly93d3cudzMub3JnLzIwMDAvc3ZnIiB4bWxuczp4bGluaz0iaHR0cDovL3d3dy53My5vcmcvMTk5OS94bGluayIgdmVyc2lvbj0iMS4xIiBpZD0ic3ZnNTk4ODkiIGlua3NjYXBlOnZlcnNpb249IjAuOTIuMyAoMjQwNTU0NiwgMjAxOC0wMy0xMSkiIHNvZGlwb2RpOmRvY25hbWU9ImF6dXJlX3BvcnRhbF9hcGlfbWFuYWdlbWVudF9zZXJ2aWNlcy5zdmciIHg9IjBweCIgeT0iMHB4IiB2aWV3Qm94PSIwIDAgMzAuOTcgMjUuNDEiIHN0eWxlPSJlbmFibGUtYmFja2dyb3VuZDpuZXcgMCAwIDMwLjk3IDI1LjQxOyIgeG1sOnNwYWNlPSJwcmVzZXJ2ZSI+JiN4YTs8c29kaXBvZGk6bmFtZWR2aWV3IGJvcmRlcmNvbG9yPSIjNjY2NjY2IiBib3JkZXJvcGFjaXR5PSIxIiBmaXQtbWFyZ2luLWJvdHRvbT0iMCIgZml0LW1hcmdpbi1sZWZ0PSIwIiBmaXQtbWFyZ2luLXJpZ2h0PSIwIiBmaXQtbWFyZ2luLXRvcD0iMCIgZ3JpZHRvbGVyYW5jZT0iMTAiIGd1aWRldG9sZXJhbmNlPSIxMCIgaWQ9Im5hbWVkdmlldzU5ODkxIiBpbmtzY2FwZTpjdXJyZW50LWxheWVyPSJzdmc1OTg4OSIgaW5rc2NhcGU6Y3g9IjI5LjQ3MTgyNyIgaW5rc2NhcGU6Y3k9IjE2LjEyMDc3NSIgaW5rc2NhcGU6cGFnZW9wYWNpdHk9IjAiIGlua3NjYXBlOnBhZ2VzaGFkb3c9IjIiIGlua3NjYXBlOndpbmRvdy1oZWlnaHQ9IjEwMTciIGlua3NjYXBlOndpbmRvdy1tYXhpbWl6ZWQ9IjEiIGlua3NjYXBlOndpbmRvdy13aWR0aD0iMTkyMCIgaW5rc2NhcGU6d2luZG93LXg9Ii04IiBpbmtzY2FwZTp3aW5kb3cteT0iLTgiIGlua3NjYXBlOnpvb209IjE4LjA5MzIyNiIgb2JqZWN0dG9sZXJhbmNlPSIxMCIgcGFnZWNvbG9yPSIjZmZmZmZmIiBzaG93Z3JpZD0iZmFsc2UiPiYjeGE7CTwvc29kaXBvZGk6bmFtZWR2aWV3PiYjeGE7PGcgaWQ9Imc1OTg4NyI+JiN4YTsJPHRpdGxlIGlkPSJ0aXRsZTU5ODcyIj5QYWdlLTE8L3RpdGxlPiYjeGE7CTxnIGlkPSJncm91cDQ0MzMtMSI+JiN4YTsJCTx0aXRsZSBpZD0idGl0bGU1OTg3NCI+QXp1cmUgUG9ydGFsIC0gQVBJIE1hbmFnZW1lbnQgU2VydmljZXM8L3RpdGxlPiYjeGE7CQk8ZyBpZD0ic2hhcGU0NDM0LTIiPiYjeGE7CQkJPHRpdGxlIGlkPSJ0aXRsZTU5ODc2Ij5BUEkgTWFuYWdlbWVudDwvdGl0bGU+JiN4YTsJCQk8cGF0aCBpZD0icGF0aDU5ODc4IiBpbmtzY2FwZTpjb25uZWN0b3ItY3VydmF0dXJlPSIwIiBzdHlsZT0iZmlsbDojNTlCNEQ5OyIgZD0iTTI3LjExLDEwLjY1YzAuMS0wLjM5LDAuMS0wLjU4LDAuMS0xLjE1ICAgICBjMC01LjM4LTQuNDQtOS41LTkuODUtOS41Yy0zLjg1LDAtNy40MywyLjAxLTguODcsNS41N2MtMC40OSwwLTAuODYtMC4yLTEuNDUtMC4yYy0zLjg2LDAtNy4wNCwzLjA3LTcuMDQsNyAgICAgYzAsMy44NCwzLjE4LDYuOSw3LjA0LDYuOWgzLjU4YzAuMDksMC40OSwwLjM3LDAuOTgsMC44NiwxLjM1YzEuMjYsMS4zNSwzLjM4LDEuMjUsNC42MywwczEuMjUtMy4zNiwwLTQuNiAgICAgYy0xLjI1LTEuMzQtMy4zNy0xLjM0LTQuNjMsMGMtMC4yOSwwLjI4LTAuNDksMC44Ny0wLjY3LDEuMjRsLTMuNjcsMC4xYy0yLjcsMC00LjkyLTIuMi00LjkyLTQuOTljMC0yLjc4LDIuMTItNC45OCw0LjkyLTQuOTggICAgIGMwLjQ5LDAsMS4wNiwwLjA5LDEuNjUsMC4xOWwxLjA0LDAuMjlsMC4zLTEuMDVjMS4wNi0zLjE3LDMuOTUtNS4yOCw3LjQzLTUuMjhjNC4yNCwwLDcuNzEsMy40NSw3LjcxLDcuNjcgICAgIGMwLDAuNjgtMC4wOSwxLjM0LTAuMjgsMi4wMWwtMC4zOSwxLjU0bDEuNjMtMC4xOWgwLjNjMS4yNSwwLDIuMjIsMS4wNSwyLjIyLDIuMmMwLDEuMTYtMC44NywyLjAyLTEuOTMsMi4yMWgtNS41ICAgICBjLTAuMi0xLjU0LTAuOTctMi44Ny0yLjAzLTMuOTNjLTEuMzQtMS4zNC0zLjE4LTIuMTEtNS4xMS0yLjExYy0xLjM0LDAtMi43LDAuMzgtMy43NiwxLjA2bDEuMTYsMS44MiAgICAgYzAuODctMC40OSwxLjczLTAuNjgsMi43LTAuNjhjMS4zNSwwLDIuNywwLjQ4LDMuNTcsMS41NGMwLjk2LDAuOTYsMS41NCwyLjIxLDEuNTQsMy41NGMwLDEuMzUtMC40OCwyLjY5LTEuNTQsMy41NSAgICAgYy0wLjk2LDEuMDYtMi4yMiwxLjU0LTMuNTcsMS41NGMtMC45NywwLTEuOTMtMC4yOS0yLjctMC44N2wtMS4xNiwxLjgzYzEuMTYsMC42NywyLjUsMS4xNCwzLjc2LDEuMTRjMS45MywwLDMuNzctMC42Niw1LjExLTIuMSAgICAgYzEuMTYtMS4xNSwxLjgzLTIuNTksMi4wMy00LjIyYzAuMjksMCw1LjYtMC4wOSw1LjYtMC4wOWgwLjA5YzIuMjMtMC4yLDMuOTYtMi4xMSwzLjk2LTQuNDIgICAgIEMzMC41OCwxMi43NiwyOS4xNCwxMS4wNCwyNy4xMSwxMC42NXoiLz4mI3hhOwkJPC9nPiYjeGE7CQk8ZyBpZD0ic2hhcGU0NDM1LTQiIHRyYW5zZm9ybT0idHJhbnNsYXRlKDEwLjI5ODMsLTMuNTYwNikiPiYjeGE7CQkJPHRpdGxlIGlkPSJ0aXRsZTU5ODgxIj5TaGVldC40NDM1PC90aXRsZT4mI3hhOwkJCTxwYXRoIGlkPSJwYXRoNTk4ODMiIGlua3NjYXBlOmNvbm5lY3Rvci1jdXJ2YXR1cmU9IjAiIHN0eWxlPSJmaWxsOiM2ODIxN0E7IiBkPSJNMCwyMS45NmMwLTEuOTEsMS41NS0zLjQ2LDMuNDUtMy40NiAgICAgYzEuOTMsMCwzLjQ2LDEuNTUsMy40NiwzLjQ2YzAsMS45Mi0xLjUzLDMuNDUtMy40NiwzLjQ1QzEuNTUsMjUuNDEsMCwyMy44OCwwLDIxLjk2eiIvPiYjeGE7CQk8L2c+JiN4YTsJPC9nPiYjeGE7PC9nPiYjeGE7PC9zdmc+;" vertex="1" parent="1">
          <mxGeometry x="527.98" y="325.81" width="87.04" height="70.19" as="geometry" />
        </mxCell>
        <mxCell id="YAfutnhfghZewP8T_fIi-26" style="edgeStyle=orthogonalEdgeStyle;rounded=0;orthogonalLoop=1;jettySize=auto;html=1;strokeWidth=6;dashed=1;strokeColor=#FFFFFF;" edge="1" parent="1" source="YAfutnhfghZewP8T_fIi-13">
          <mxGeometry relative="1" as="geometry">
            <mxPoint x="269.9999999999998" y="360.5" as="targetPoint" />
          </mxGeometry>
        </mxCell>
        <mxCell id="YAfutnhfghZewP8T_fIi-13" value="" style="rounded=1;whiteSpace=wrap;html=1;shadow=0;strokeWidth=2;fillColor=none;fontSize=12;fontColor=#000000;align=center;strokeColor=#FFFFFF;" vertex="1" parent="1">
          <mxGeometry x="30" y="201" width="170" height="319" as="geometry" />
        </mxCell>
        <mxCell id="YAfutnhfghZewP8T_fIi-14" value="" style="shadow=0;dashed=0;html=1;strokeColor=none;shape=mxgraph.mscae.enterprise.web;fillColor=#FFFFFF;rounded=1;fontSize=11;fontColor=#FFFFFF;align=center;" vertex="1" parent="1">
          <mxGeometry x="90" y="436" width="50" height="50" as="geometry" />
        </mxCell>
        <mxCell id="YAfutnhfghZewP8T_fIi-15" value="" style="shadow=0;dashed=0;html=1;strokeColor=none;shape=mxgraph.mscae.enterprise.web;fillColor=#FFFFFF;rounded=1;fontSize=11;fontColor=#FFFFFF;align=center;" vertex="1" parent="1">
          <mxGeometry x="90" y="355" width="50" height="50" as="geometry" />
        </mxCell>
        <mxCell id="YAfutnhfghZewP8T_fIi-16" value="" style="shadow=0;dashed=0;html=1;strokeColor=none;shape=mxgraph.mscae.enterprise.web;fillColor=#FFFFFF;rounded=1;fontSize=11;fontColor=#FFFFFF;align=center;" vertex="1" parent="1">
          <mxGeometry x="90" y="275" width="50" height="50" as="geometry" />
        </mxCell>
        <mxCell id="YAfutnhfghZewP8T_fIi-17" value="&lt;font color=&quot;#ffffff&quot;&gt;Web Clients&lt;/font&gt;" style="text;strokeColor=none;fillColor=none;html=1;fontSize=24;fontStyle=1;verticalAlign=middle;align=center;rounded=0;shadow=0;fontColor=#000000;" vertex="1" parent="1">
          <mxGeometry x="45" y="212" width="140" height="40" as="geometry" />
        </mxCell>
        <mxCell id="YAfutnhfghZewP8T_fIi-20" value="" style="fillColor=#004C99;verticalLabelPosition=bottom;sketch=0;html=1;strokeColor=#ffffff;verticalAlign=top;align=center;points=[[0.145,0.145,0],[0.5,0,0],[0.855,0.145,0],[1,0.5,0],[0.855,0.855,0],[0.5,1,0],[0.145,0.855,0],[0,0.5,0]];pointerEvents=1;shape=mxgraph.cisco_safe.compositeIcon;bgIcon=ellipse;resIcon=mxgraph.cisco_safe.capability.virtual_private_network;" vertex="1" parent="1">
          <mxGeometry x="304.5" y="638.5" width="103" height="103" as="geometry" />
        </mxCell>
        <mxCell id="YAfutnhfghZewP8T_fIi-21" value="" style="rounded=1;whiteSpace=wrap;html=1;shadow=0;strokeWidth=2;fillColor=none;fontSize=12;fontColor=#000000;align=center;strokeColor=#FFFFFF;" vertex="1" parent="1">
          <mxGeometry x="30" y="618.5" width="170" height="143" as="geometry" />
        </mxCell>
        <mxCell id="YAfutnhfghZewP8T_fIi-24" value="" style="shadow=0;dashed=0;html=1;strokeColor=none;shape=mxgraph.mscae.enterprise.web;fillColor=#FFFFFF;rounded=1;fontSize=11;fontColor=#FFFFFF;align=center;" vertex="1" parent="1">
          <mxGeometry x="90" y="692.5" width="50" height="50" as="geometry" />
        </mxCell>
        <mxCell id="YAfutnhfghZewP8T_fIi-25" value="&lt;font color=&quot;#ffffff&quot;&gt;CMS Clients&lt;/font&gt;" style="text;strokeColor=none;fillColor=none;html=1;fontSize=24;fontStyle=1;verticalAlign=middle;align=center;rounded=0;shadow=0;fontColor=#000000;" vertex="1" parent="1">
          <mxGeometry x="45" y="632.5" width="140" height="40" as="geometry" />
        </mxCell>
        <mxCell id="YAfutnhfghZewP8T_fIi-27" style="edgeStyle=orthogonalEdgeStyle;rounded=0;orthogonalLoop=1;jettySize=auto;html=1;exitX=1;exitY=0.5;exitDx=0;exitDy=0;entryX=0.011;entryY=0.355;entryDx=0;entryDy=0;entryPerimeter=0;strokeWidth=6;dashed=1;strokeColor=#FFFFFF;" edge="1" parent="1" source="23046e2b9bb16c14-27" target="YAfutnhfghZewP8T_fIi-11">
          <mxGeometry relative="1" as="geometry" />
        </mxCell>
        <mxCell id="YAfutnhfghZewP8T_fIi-28" style="edgeStyle=orthogonalEdgeStyle;rounded=0;orthogonalLoop=1;jettySize=auto;html=1;entryX=0;entryY=0.5;entryDx=0;entryDy=0;entryPerimeter=0;strokeWidth=6;dashed=1;strokeColor=#FFFFFF;" edge="1" parent="1" source="YAfutnhfghZewP8T_fIi-21" target="YAfutnhfghZewP8T_fIi-20">
          <mxGeometry relative="1" as="geometry" />
        </mxCell>
        <mxCell id="YAfutnhfghZewP8T_fIi-29" style="edgeStyle=orthogonalEdgeStyle;rounded=0;orthogonalLoop=1;jettySize=auto;html=1;entryX=-0.037;entryY=0.355;entryDx=0;entryDy=0;entryPerimeter=0;" edge="1" parent="1" source="YAfutnhfghZewP8T_fIi-20" target="YAfutnhfghZewP8T_fIi-11">
          <mxGeometry relative="1" as="geometry" />
        </mxCell>
        <mxCell id="YAfutnhfghZewP8T_fIi-34" value="&lt;h4&gt;&lt;br&gt;&lt;/h4&gt;" style="rounded=1;whiteSpace=wrap;html=1;shadow=0;strokeWidth=2;fillColor=#99CCFF;fontSize=12;fontColor=#000000;align=center;strokeColor=none;arcSize=3;" vertex="1" parent="1">
          <mxGeometry x="720" y="140.91" width="168" height="449.09" as="geometry" />
        </mxCell>
        <mxCell id="YAfutnhfghZewP8T_fIi-35" value="" style="aspect=fixed;sketch=0;html=1;dashed=0;whitespace=wrap;fillColor=#2875E2;strokeColor=#ffffff;points=[[0.005,0.63,0],[0.1,0.2,0],[0.9,0.2,0],[0.5,0,0],[0.995,0.63,0],[0.72,0.99,0],[0.5,1,0],[0.28,0.99,0]];shape=mxgraph.kubernetes.icon2;prIcon=pod" vertex="1" parent="1">
          <mxGeometry x="764.43" y="190" width="79.17" height="76" as="geometry" />
        </mxCell>
        <mxCell id="YAfutnhfghZewP8T_fIi-36" value="" style="aspect=fixed;sketch=0;html=1;dashed=0;whitespace=wrap;fillColor=#2875E2;strokeColor=#ffffff;points=[[0.005,0.63,0],[0.1,0.2,0],[0.9,0.2,0],[0.5,0,0],[0.995,0.63,0],[0.72,0.99,0],[0.5,1,0],[0.28,0.99,0]];shape=mxgraph.kubernetes.icon2;prIcon=pod" vertex="1" parent="1">
          <mxGeometry x="764.43" y="286.00000000000006" width="79.17" height="76" as="geometry" />
        </mxCell>
        <mxCell id="YAfutnhfghZewP8T_fIi-37" value="" style="aspect=fixed;sketch=0;html=1;dashed=0;whitespace=wrap;fillColor=#2875E2;strokeColor=#ffffff;points=[[0.005,0.63,0],[0.1,0.2,0],[0.9,0.2,0],[0.5,0,0],[0.995,0.63,0],[0.72,0.99,0],[0.5,1,0],[0.28,0.99,0]];shape=mxgraph.kubernetes.icon2;prIcon=pod" vertex="1" parent="1">
          <mxGeometry x="764.4399999999999" y="388.18000000000006" width="79.17" height="76" as="geometry" />
        </mxCell>
        <mxCell id="YAfutnhfghZewP8T_fIi-38" value="" style="aspect=fixed;sketch=0;html=1;dashed=0;whitespace=wrap;fillColor=#2875E2;strokeColor=#ffffff;points=[[0.005,0.63,0],[0.1,0.2,0],[0.9,0.2,0],[0.5,0,0],[0.995,0.63,0],[0.72,0.99,0],[0.5,1,0],[0.28,0.99,0]];shape=mxgraph.kubernetes.icon2;prIcon=pod" vertex="1" parent="1">
          <mxGeometry x="764.43" y="494.18000000000006" width="79.17" height="76" as="geometry" />
        </mxCell>
        <mxCell id="YAfutnhfghZewP8T_fIi-70" style="edgeStyle=orthogonalEdgeStyle;rounded=0;orthogonalLoop=1;jettySize=auto;html=1;strokeWidth=6;dashed=1;strokeColor=#FFFFFF;" edge="1" parent="1" source="YAfutnhfghZewP8T_fIi-39" target="YAfutnhfghZewP8T_fIi-65">
          <mxGeometry relative="1" as="geometry" />
        </mxCell>
        <mxCell id="YAfutnhfghZewP8T_fIi-39" value="&lt;h4&gt;&lt;br&gt;&lt;/h4&gt;" style="rounded=1;whiteSpace=wrap;html=1;shadow=0;strokeWidth=2;fillColor=#99CCFF;fontSize=12;fontColor=#000000;align=center;strokeColor=none;arcSize=3;" vertex="1" parent="1">
          <mxGeometry x="720.01" y="620" width="168" height="140" as="geometry" />
        </mxCell>
        <mxCell id="YAfutnhfghZewP8T_fIi-40" value="" style="aspect=fixed;sketch=0;html=1;dashed=0;whitespace=wrap;fillColor=#2875E2;strokeColor=#ffffff;points=[[0.005,0.63,0],[0.1,0.2,0],[0.9,0.2,0],[0.5,0,0],[0.995,0.63,0],[0.72,0.99,0],[0.5,1,0],[0.28,0.99,0]];shape=mxgraph.kubernetes.icon2;prIcon=pod" vertex="1" parent="1">
          <mxGeometry x="764.425" y="665.5" width="79.17" height="76" as="geometry" />
        </mxCell>
        <mxCell id="YAfutnhfghZewP8T_fIi-44" value="Writable" style="text;strokeColor=none;fillColor=none;html=1;fontSize=24;fontStyle=1;verticalAlign=middle;align=center;rounded=0;shadow=0;fontColor=#000000;" vertex="1" parent="1">
          <mxGeometry x="734.01" y="625.5" width="140" height="40" as="geometry" />
        </mxCell>
        <mxCell id="YAfutnhfghZewP8T_fIi-45" value="&lt;font style=&quot;font-size: 17px;&quot;&gt;BFF Readable&lt;/font&gt;" style="text;strokeColor=none;fillColor=none;html=1;fontSize=24;fontStyle=1;verticalAlign=middle;align=center;rounded=0;shadow=0;fontColor=#000000;" vertex="1" parent="1">
          <mxGeometry x="734.02" y="150" width="140" height="40" as="geometry" />
        </mxCell>
        <mxCell id="YAfutnhfghZewP8T_fIi-69" style="edgeStyle=orthogonalEdgeStyle;rounded=0;orthogonalLoop=1;jettySize=auto;html=1;entryX=0;entryY=0.5;entryDx=0;entryDy=0;strokeWidth=6;dashed=1;strokeColor=#FFFFFF;" edge="1" parent="1" source="YAfutnhfghZewP8T_fIi-49" target="YAfutnhfghZewP8T_fIi-66">
          <mxGeometry relative="1" as="geometry" />
        </mxCell>
        <mxCell id="YAfutnhfghZewP8T_fIi-49" value="&lt;h4&gt;&lt;br&gt;&lt;/h4&gt;" style="rounded=1;whiteSpace=wrap;html=1;shadow=0;strokeWidth=2;fillColor=#99CCFF;fontSize=12;fontColor=#000000;align=center;strokeColor=none;arcSize=3;" vertex="1" parent="1">
          <mxGeometry x="720" y="790" width="168" height="140" as="geometry" />
        </mxCell>
        <mxCell id="YAfutnhfghZewP8T_fIi-50" value="" style="aspect=fixed;sketch=0;html=1;dashed=0;whitespace=wrap;fillColor=#2875E2;strokeColor=#ffffff;points=[[0.005,0.63,0],[0.1,0.2,0],[0.9,0.2,0],[0.5,0,0],[0.995,0.63,0],[0.72,0.99,0],[0.5,1,0],[0.28,0.99,0]];shape=mxgraph.kubernetes.icon2;prIcon=pod" vertex="1" parent="1">
          <mxGeometry x="764.415" y="835.5" width="79.17" height="76" as="geometry" />
        </mxCell>
        <mxCell id="YAfutnhfghZewP8T_fIi-51" value="Comments" style="text;strokeColor=none;fillColor=none;html=1;fontSize=24;fontStyle=1;verticalAlign=middle;align=center;rounded=0;shadow=0;fontColor=#000000;" vertex="1" parent="1">
          <mxGeometry x="734" y="795.5" width="140" height="40" as="geometry" />
        </mxCell>
        <mxCell id="YAfutnhfghZewP8T_fIi-71" style="edgeStyle=orthogonalEdgeStyle;rounded=0;orthogonalLoop=1;jettySize=auto;html=1;entryX=0;entryY=0.5;entryDx=0;entryDy=0;strokeWidth=6;dashed=1;strokeColor=#FFFFFF;" edge="1" parent="1" source="YAfutnhfghZewP8T_fIi-52" target="YAfutnhfghZewP8T_fIi-67">
          <mxGeometry relative="1" as="geometry" />
        </mxCell>
        <mxCell id="YAfutnhfghZewP8T_fIi-52" value="&lt;h4&gt;&lt;br&gt;&lt;/h4&gt;" style="rounded=1;whiteSpace=wrap;html=1;shadow=0;strokeWidth=2;fillColor=#99CCFF;fontSize=12;fontColor=#000000;align=center;strokeColor=none;arcSize=3;" vertex="1" parent="1">
          <mxGeometry x="720" y="960" width="168" height="140" as="geometry" />
        </mxCell>
        <mxCell id="YAfutnhfghZewP8T_fIi-53" value="" style="aspect=fixed;sketch=0;html=1;dashed=0;whitespace=wrap;fillColor=#2875E2;strokeColor=#ffffff;points=[[0.005,0.63,0],[0.1,0.2,0],[0.9,0.2,0],[0.5,0,0],[0.995,0.63,0],[0.72,0.99,0],[0.5,1,0],[0.28,0.99,0]];shape=mxgraph.kubernetes.icon2;prIcon=pod" vertex="1" parent="1">
          <mxGeometry x="764.415" y="1005.5" width="79.17" height="76" as="geometry" />
        </mxCell>
        <mxCell id="YAfutnhfghZewP8T_fIi-54" value="ViewStore" style="text;strokeColor=none;fillColor=none;html=1;fontSize=24;fontStyle=1;verticalAlign=middle;align=center;rounded=0;shadow=0;fontColor=#000000;" vertex="1" parent="1">
          <mxGeometry x="734" y="965.5" width="140" height="40" as="geometry" />
        </mxCell>
        <mxCell id="YAfutnhfghZewP8T_fIi-72" style="edgeStyle=orthogonalEdgeStyle;rounded=0;orthogonalLoop=1;jettySize=auto;html=1;strokeWidth=6;dashed=1;strokeColor=#FFFFFF;" edge="1" parent="1" source="YAfutnhfghZewP8T_fIi-55" target="YAfutnhfghZewP8T_fIi-68">
          <mxGeometry relative="1" as="geometry" />
        </mxCell>
        <mxCell id="YAfutnhfghZewP8T_fIi-55" value="&lt;h4&gt;&lt;br&gt;&lt;/h4&gt;" style="rounded=1;whiteSpace=wrap;html=1;shadow=0;strokeWidth=2;fillColor=#99CCFF;fontSize=12;fontColor=#000000;align=center;strokeColor=none;arcSize=3;" vertex="1" parent="1">
          <mxGeometry x="720" y="1140" width="168" height="140" as="geometry" />
        </mxCell>
        <mxCell id="YAfutnhfghZewP8T_fIi-56" value="" style="aspect=fixed;sketch=0;html=1;dashed=0;whitespace=wrap;fillColor=#2875E2;strokeColor=#ffffff;points=[[0.005,0.63,0],[0.1,0.2,0],[0.9,0.2,0],[0.5,0,0],[0.995,0.63,0],[0.72,0.99,0],[0.5,1,0],[0.28,0.99,0]];shape=mxgraph.kubernetes.icon2;prIcon=pod" vertex="1" parent="1">
          <mxGeometry x="764.415" y="1185.5" width="79.17" height="76" as="geometry" />
        </mxCell>
        <mxCell id="YAfutnhfghZewP8T_fIi-57" value="NAA" style="text;strokeColor=none;fillColor=none;html=1;fontSize=24;fontStyle=1;verticalAlign=middle;align=center;rounded=0;shadow=0;fontColor=#000000;" vertex="1" parent="1">
          <mxGeometry x="734" y="1145.5" width="140" height="40" as="geometry" />
        </mxCell>
        <mxCell id="YAfutnhfghZewP8T_fIi-63" value="" style="sketch=0;outlineConnect=0;fontColor=#232F3E;gradientColor=none;fillColor=#3399FF;strokeColor=none;dashed=0;verticalLabelPosition=bottom;verticalAlign=top;align=center;html=1;fontSize=12;fontStyle=0;aspect=fixed;pointerEvents=1;shape=mxgraph.aws4.mq_broker;" vertex="1" parent="1">
          <mxGeometry x="1330" y="876.5" width="145.83" height="129" as="geometry" />
        </mxCell>
        <mxCell id="YAfutnhfghZewP8T_fIi-74" style="edgeStyle=orthogonalEdgeStyle;rounded=0;orthogonalLoop=1;jettySize=auto;html=1;strokeWidth=6;dashed=1;strokeColor=#FFFFFF;" edge="1" parent="1" source="YAfutnhfghZewP8T_fIi-65" target="YAfutnhfghZewP8T_fIi-63">
          <mxGeometry relative="1" as="geometry" />
        </mxCell>
        <mxCell id="YAfutnhfghZewP8T_fIi-65" value="" style="image;aspect=fixed;perimeter=ellipsePerimeter;html=1;align=center;shadow=0;dashed=0;spacingTop=3;image=img/lib/active_directory/database.svg;" vertex="1" parent="1">
          <mxGeometry x="990" y="640.75" width="133.11" height="98.5" as="geometry" />
        </mxCell>
        <mxCell id="YAfutnhfghZewP8T_fIi-75" style="edgeStyle=orthogonalEdgeStyle;rounded=0;orthogonalLoop=1;jettySize=auto;html=1;strokeWidth=6;dashed=1;strokeColor=#FFFFFF;" edge="1" parent="1" source="YAfutnhfghZewP8T_fIi-66" target="YAfutnhfghZewP8T_fIi-63">
          <mxGeometry relative="1" as="geometry" />
        </mxCell>
        <mxCell id="YAfutnhfghZewP8T_fIi-66" value="" style="image;aspect=fixed;perimeter=ellipsePerimeter;html=1;align=center;shadow=0;dashed=0;spacingTop=3;image=img/lib/active_directory/database.svg;" vertex="1" parent="1">
          <mxGeometry x="990" y="810.75" width="133.11" height="98.5" as="geometry" />
        </mxCell>
        <mxCell id="YAfutnhfghZewP8T_fIi-76" style="edgeStyle=orthogonalEdgeStyle;rounded=0;orthogonalLoop=1;jettySize=auto;html=1;strokeWidth=6;dashed=1;strokeColor=#FFFFFF;" edge="1" parent="1" source="YAfutnhfghZewP8T_fIi-67" target="YAfutnhfghZewP8T_fIi-63">
          <mxGeometry relative="1" as="geometry" />
        </mxCell>
        <mxCell id="YAfutnhfghZewP8T_fIi-67" value="" style="image;aspect=fixed;perimeter=ellipsePerimeter;html=1;align=center;shadow=0;dashed=0;spacingTop=3;image=img/lib/active_directory/database.svg;" vertex="1" parent="1">
          <mxGeometry x="990" y="980.75" width="133.11" height="98.5" as="geometry" />
        </mxCell>
        <mxCell id="YAfutnhfghZewP8T_fIi-68" value="" style="image;aspect=fixed;perimeter=ellipsePerimeter;html=1;align=center;shadow=0;dashed=0;spacingTop=3;image=img/lib/active_directory/database.svg;" vertex="1" parent="1">
          <mxGeometry x="990" y="1160.75" width="133.11" height="98.5" as="geometry" />
        </mxCell>
        <mxCell id="YAfutnhfghZewP8T_fIi-77" value="" style="sketch=0;points=[[0,0,0],[0.25,0,0],[0.5,0,0],[0.75,0,0],[1,0,0],[0,1,0],[0.25,1,0],[0.5,1,0],[0.75,1,0],[1,1,0],[0,0.25,0],[0,0.5,0],[0,0.75,0],[1,0.25,0],[1,0.5,0],[1,0.75,0]];outlineConnect=0;fontColor=#232F3E;fillColor=#99CCFF;strokeColor=#ffffff;dashed=0;verticalLabelPosition=bottom;verticalAlign=top;align=center;html=1;fontSize=12;fontStyle=0;aspect=fixed;shape=mxgraph.aws4.resourceIcon;resIcon=mxgraph.aws4.memorydb_for_redis;" vertex="1" parent="1">
          <mxGeometry x="1320" y="1134.5" width="151" height="151" as="geometry" />
        </mxCell>
        <mxCell id="YAfutnhfghZewP8T_fIi-78" style="edgeStyle=orthogonalEdgeStyle;rounded=0;orthogonalLoop=1;jettySize=auto;html=1;entryX=0;entryY=0.5;entryDx=0;entryDy=0;entryPerimeter=0;strokeWidth=6;dashed=1;strokeColor=#FFFFFF;" edge="1" parent="1" source="YAfutnhfghZewP8T_fIi-68" target="YAfutnhfghZewP8T_fIi-77">
          <mxGeometry relative="1" as="geometry" />
        </mxCell>
        <mxCell id="YAfutnhfghZewP8T_fIi-79" value="&lt;font style=&quot;font-size: 18px;&quot; color=&quot;#ffffff&quot;&gt;PG&lt;/font&gt;" style="text;strokeColor=none;fillColor=none;html=1;fontSize=24;fontStyle=1;verticalAlign=middle;align=center;rounded=0;shadow=0;fontColor=#000000;" vertex="1" parent="1">
          <mxGeometry x="986.5550000000001" y="600.75" width="140" height="40" as="geometry" />
        </mxCell>
        <mxCell id="YAfutnhfghZewP8T_fIi-80" value="&lt;font style=&quot;font-size: 18px;&quot; color=&quot;#ffffff&quot;&gt;PG&lt;/font&gt;" style="text;strokeColor=none;fillColor=none;html=1;fontSize=24;fontStyle=1;verticalAlign=middle;align=center;rounded=0;shadow=0;fontColor=#000000;" vertex="1" parent="1">
          <mxGeometry x="986.5550000000001" y="1130" width="140" height="40" as="geometry" />
        </mxCell>
        <mxCell id="YAfutnhfghZewP8T_fIi-81" value="&lt;font style=&quot;font-size: 18px;&quot; color=&quot;#ffffff&quot;&gt;NoSQL&lt;/font&gt;" style="text;strokeColor=none;fillColor=none;html=1;fontSize=24;fontStyle=1;verticalAlign=middle;align=center;rounded=0;shadow=0;fontColor=#000000;" vertex="1" parent="1">
          <mxGeometry x="986.5550000000001" y="950" width="140" height="40" as="geometry" />
        </mxCell>
        <mxCell id="YAfutnhfghZewP8T_fIi-82" value="&lt;font style=&quot;font-size: 18px;&quot; color=&quot;#ffffff&quot;&gt;NoSQL&lt;/font&gt;" style="text;strokeColor=none;fillColor=none;html=1;fontSize=24;fontStyle=1;verticalAlign=middle;align=center;rounded=0;shadow=0;fontColor=#000000;" vertex="1" parent="1">
          <mxGeometry x="986.5550000000001" y="770.75" width="140" height="40" as="geometry" />
        </mxCell>
      </root>
    </mxGraphModel>
  </diagram>
</mxfile>
